<svg xmlns="http://www.w3.org/2000/svg" viewBox="0 9.199999809265137 592.5999755859375 47.79999923706055" data-asc="0.93"><g fill="#000000"><g fill="#000000" transform="translate(0, 0)"><path d="M31.30 46.50L25.65 46.50L22.50 37.85L8.65 37.85L5.50 46.50L0 46.50L12.45 13.50L18.85 13.50L31.30 46.50M10.15 33.50L21 33.50L15.60 18.10L10.15 33.50ZM36.40 46.50L36.40 21.50L41.15 21.50L41.50 28L40.80 27.30Q41.50 25.15 42.83 23.72Q44.15 22.30 45.98 21.65Q47.80 21 49.85 21Q52.50 21 54.63 22.02Q56.75 23.05 58 25.10Q59.25 27.15 59.25 30.30L59.25 46.50L53.90 46.50L53.90 31.95Q53.90 28.25 52.38 26.82Q50.85 25.40 48.55 25.40Q46.90 25.40 45.35 26.17Q43.80 26.95 42.77 28.65Q41.75 30.35 41.75 33.20L41.75 46.50L36.40 46.50ZM76.95 47Q73.85 47 71.33 45.45Q68.80 43.90 67.35 41Q65.90 38.10 65.90 34.05Q65.90 29.85 67.45 26.95Q69 24.05 71.60 22.52Q74.20 21 77.30 21Q80.50 21 82.70 22.75Q84.90 24.50 85.65 27.30L85.05 27.85L85.05 10.25L90.40 10.25L90.40 46.50L85.65 46.50L85.25 39.70L85.95 39.75Q85.60 42 84.30 43.63Q83 45.25 81.08 46.13Q79.15 47 76.95 47M78.10 42.70Q80.25 42.70 81.80 41.60Q83.35 40.50 84.20 38.50Q85.05 36.50 85.05 33.70Q85.05 31.10 84.20 29.22Q83.35 27.35 81.83 26.35Q80.30 25.35 78.30 25.35Q74.95 25.35 73.10 27.65Q71.25 29.95 71.25 34Q71.25 38.05 73.05 40.38Q74.85 42.70 78.10 42.70ZM98.70 46.50L98.70 21.50L103.25 21.50L103.75 26Q104.75 23.55 106.73 22.27Q108.70 21 111.60 21Q112.35 21 113.10 21.13Q113.85 21.25 114.35 21.50L113.60 26.20Q113.05 26 112.38 25.88Q111.70 25.75 110.55 25.75Q109.00 25.75 107.50 26.57Q106.00 27.40 105.03 29.05Q104.05 30.70 104.05 33.25L104.05 46.50L98.70 46.50ZM130.40 47Q126.65 47 123.80 45.45Q120.95 43.90 119.38 40.98Q117.80 38.05 117.80 34Q117.80 29.95 119.38 27.02Q120.95 24.10 123.75 22.55Q126.55 21 130.10 21Q133.75 21 136.30 22.50Q138.85 24 140.20 26.60Q141.55 29.20 141.55 32.50Q141.55 33.40 141.50 34.20Q141.45 35 141.35 35.60L121.25 35.60L121.25 31.50L139 31.50L136.35 32.30Q136.35 28.90 134.65 27.07Q132.95 25.25 130 25.25Q127.85 25.25 126.25 26.25Q124.65 27.25 123.80 29.22Q122.95 31.20 122.95 34.05Q122.95 36.85 123.85 38.80Q124.75 40.75 126.40 41.75Q128.05 42.75 130.30 42.75Q132.80 42.75 134.35 41.80Q135.90 40.85 136.80 39.15L141.05 41.15Q140.15 42.95 138.63 44.27Q137.10 45.60 135 46.30Q132.90 47 130.40 47M130.65 9.20L136.05 9.20L131.10 17.60L127.00 17.60L130.65 9.20ZM192.35 13.50L177.65 29.40L177.05 29.45L168.50 38.65L168 32.80L185.80 13.50L192.35 13.50M170.65 13.50L170.65 46.50L165.30 46.50L165.30 13.50L170.65 13.50M178.75 25.30L192.65 46.50L186.35 46.50L174.50 28.30L178.75 25.30ZM197.90 46.50L197.90 21.50L202.65 21.50L203 28L202.30 27.30Q203 25.15 204.32 23.72Q205.65 22.30 207.47 21.65Q209.30 21 211.35 21Q214 21 216.13 22.02Q218.25 23.05 219.50 25.10Q220.75 27.15 220.75 30.30L220.75 46.50L215.40 46.50L215.40 31.95Q215.40 28.25 213.88 26.82Q212.35 25.40 210.05 25.40Q208.40 25.40 206.85 26.17Q205.30 26.95 204.28 28.65Q203.25 30.35 203.25 33.20L203.25 46.50L197.90 46.50ZM239.70 21Q243.35 21 246.15 22.55Q248.95 24.10 250.52 27.02Q252.10 29.95 252.10 34Q252.10 38.05 250.52 40.98Q248.95 43.90 246.15 45.45Q243.35 47 239.70 47Q236.05 47 233.25 45.45Q230.45 43.90 228.85 40.98Q227.25 38.05 227.25 34Q227.25 29.95 228.85 27.02Q230.45 24.10 233.25 22.55Q236.05 21 239.70 21M239.70 25.20Q237.45 25.20 235.88 26.22Q234.30 27.25 233.45 29.20Q232.60 31.15 232.60 34Q232.60 36.80 233.45 38.77Q234.30 40.75 235.88 41.77Q237.45 42.80 239.70 42.80Q241.95 42.80 243.50 41.77Q245.05 40.75 245.90 38.77Q246.75 36.80 246.75 34Q246.75 31.15 245.90 29.20Q245.05 27.25 243.50 26.22Q241.95 25.20 239.70 25.20ZM258.85 57L258.85 21.50L263.60 21.50L264 28.50L263.30 27.65Q263.90 25.70 265.15 24.20Q266.40 22.70 268.27 21.85Q270.15 21 272.40 21Q275.45 21 277.95 22.55Q280.45 24.10 281.90 26.97Q283.35 29.85 283.35 33.95Q283.35 38.05 281.88 40.98Q280.40 43.90 277.88 45.45Q275.35 47 272.25 47Q269.05 47 266.80 45.33Q264.55 43.65 263.60 41.05L264.20 40.20L264.20 57L258.85 57M271.10 42.65Q274.35 42.65 276.18 40.35Q278 38.05 278 34Q278 29.95 276.20 27.63Q274.40 25.30 271.20 25.30Q269.10 25.30 267.52 26.38Q265.95 27.45 265.07 29.38Q264.20 31.30 264.20 34Q264.20 36.65 265.05 38.60Q265.90 40.55 267.45 41.60Q269 42.65 271.10 42.65ZM290.20 57L290.20 21.50L294.95 21.50L295.35 28.50L294.65 27.65Q295.25 25.70 296.50 24.20Q297.75 22.70 299.63 21.85Q301.50 21 303.75 21Q306.80 21 309.30 22.55Q311.80 24.10 313.25 26.97Q314.70 29.85 314.70 33.95Q314.70 38.05 313.23 40.98Q311.75 43.90 309.23 45.45Q306.70 47 303.60 47Q300.40 47 298.15 45.33Q295.90 43.65 294.95 41.05L295.55 40.20L295.55 57L290.20 57M302.45 42.65Q305.70 42.65 307.53 40.35Q309.35 38.05 309.35 34Q309.35 29.95 307.55 27.63Q305.75 25.30 302.55 25.30Q300.45 25.30 298.88 26.38Q297.30 27.45 296.43 29.38Q295.55 31.30 295.55 34Q295.55 36.65 296.40 38.60Q297.25 40.55 298.80 41.60Q300.35 42.65 302.45 42.65ZM351.95 47Q347.30 47 343.90 44.95Q340.50 42.90 338.60 39.13Q336.70 35.35 336.70 30Q336.70 24.75 338.68 20.95Q340.65 17.15 344.28 15.07Q347.90 13 352.60 13Q357.75 13 360.93 14.90Q364.10 16.80 366.00 20.80L361.05 23.15Q360.10 20.40 357.93 19.02Q355.75 17.65 352.65 17.65Q349.55 17.65 347.23 19.10Q344.90 20.55 343.60 23.32Q342.30 26.10 342.30 30Q342.30 33.95 343.45 36.73Q344.60 39.50 346.93 40.95Q349.25 42.40 352.65 42.40Q354.50 42.40 356.10 41.92Q357.70 41.45 358.90 40.52Q360.10 39.60 360.78 38.17Q361.45 36.75 361.45 34.80L361.45 33.85L351.85 33.85L351.85 29.50L366.20 29.50L366.20 46.50L362.20 46.50L361.90 39.85L362.90 40.35Q361.70 43.50 358.93 45.25Q356.15 47 351.95 47ZM382.90 47Q380.45 47 378.38 46.10Q376.30 45.20 375.05 43.20Q373.80 41.20 373.80 38L373.80 21.50L379.15 21.50L379.15 36.65Q379.15 40.05 380.60 41.33Q382.05 42.60 384.65 42.60Q385.90 42.60 387.08 42.17Q388.25 41.75 389.20 40.83Q390.15 39.90 390.68 38.45Q391.20 37 391.20 35.05L391.20 21.50L396.55 21.50L396.55 46.50L391.85 46.50L391.60 42.45Q390.30 44.80 388.10 45.90Q385.90 47 382.90 47ZM407.60 17.30Q405.85 17.30 404.93 16.42Q404 15.55 404 13.95Q404 12.35 404.93 11.50Q405.85 10.65 407.60 10.65Q409.30 10.65 410.23 11.50Q411.15 12.35 411.15 13.95Q411.15 15.55 410.23 16.42Q409.30 17.30 407.60 17.30M410.25 21.50L410.25 46.50L404.90 46.50L404.90 21.50L410.25 21.50ZM418.60 46.50L418.60 21.50L423.35 21.50L423.60 25.70Q424.90 23.30 427.07 22.15Q429.25 21 431.70 21Q434.40 21 436.68 22.22Q438.95 23.45 440.10 25.90Q440.90 24.25 442.30 23.15Q443.70 22.05 445.40 21.52Q447.10 21 448.75 21Q451.15 21 453.25 22Q455.35 23 456.65 25.05Q457.95 27.10 457.95 30.30L457.95 46.50L452.60 46.50L452.60 31.15Q452.60 28.10 451.15 26.75Q449.70 25.40 447.45 25.40Q445.70 25.40 444.22 26.25Q442.75 27.10 441.85 28.77Q440.95 30.45 440.95 32.90L440.95 46.50L435.60 46.50L435.60 31.15Q435.60 28.10 434.15 26.75Q432.70 25.40 430.45 25.40Q428.95 25.40 427.45 26.20Q425.95 27 424.95 28.70Q423.95 30.40 423.95 33.20L423.95 46.50L418.60 46.50ZM480.50 30.45Q480.50 27.95 479.13 26.57Q477.75 25.20 475.35 25.20Q473.10 25.20 471.50 26.25Q469.90 27.30 469.15 29.65L464.65 27.75Q465.60 24.70 468.38 22.85Q471.15 21 475.55 21Q478.55 21 480.85 21.97Q483.15 22.95 484.47 24.90Q485.80 26.85 485.80 29.90L485.80 41.05Q485.80 42.90 487.65 42.90Q488.55 42.90 489.40 42.65L489.10 46.35Q487.95 46.90 486.20 46.90Q484.60 46.90 483.32 46.33Q482.05 45.75 481.32 44.58Q480.60 43.40 480.60 41.65L480.60 41.30L481.70 41.25Q481.25 43.20 479.85 44.48Q478.45 45.75 476.60 46.38Q474.75 47 472.85 47Q470.50 47 468.63 46.25Q466.75 45.50 465.67 43.98Q464.60 42.45 464.60 40.20Q464.60 37.40 466.42 35.60Q468.25 33.80 471.60 33.15L481.30 31.25L481.25 35L474.20 36.45Q472.10 36.85 471.05 37.60Q470 38.35 470 39.80Q470 41.20 471.07 42.02Q472.15 42.85 473.95 42.85Q475.20 42.85 476.38 42.55Q477.55 42.25 478.50 41.58Q479.45 40.90 479.97 39.83Q480.50 38.75 480.50 37.25L480.50 30.45ZM494.55 46.50L494.55 21.50L499.10 21.50L499.60 26Q500.60 23.55 502.57 22.27Q504.55 21 507.45 21Q508.20 21 508.95 21.13Q509.70 21.25 510.20 21.50L509.45 26.20Q508.90 26 508.22 25.88Q507.55 25.75 506.40 25.75Q504.85 25.75 503.35 26.57Q501.85 27.40 500.88 29.05Q499.90 30.70 499.90 33.25L499.90 46.50L494.55 46.50ZM529.70 30.45Q529.70 27.95 528.32 26.57Q526.95 25.20 524.55 25.20Q522.30 25.20 520.70 26.25Q519.10 27.30 518.35 29.65L513.85 27.75Q514.80 24.70 517.57 22.85Q520.35 21 524.75 21Q527.75 21 530.05 21.97Q532.35 22.95 533.67 24.90Q535 26.85 535 29.90L535 41.05Q535 42.90 536.85 42.90Q537.75 42.90 538.60 42.65L538.30 46.35Q537.15 46.90 535.40 46.90Q533.80 46.90 532.52 46.33Q531.25 45.75 530.52 44.58Q529.80 43.40 529.80 41.65L529.80 41.30L530.90 41.25Q530.45 43.20 529.05 44.48Q527.65 45.75 525.80 46.38Q523.95 47 522.05 47Q519.70 47 517.82 46.25Q515.95 45.50 514.88 43.98Q513.80 42.45 513.80 40.20Q513.80 37.40 515.63 35.60Q517.45 33.80 520.80 33.15L530.50 31.25L530.45 35L523.40 36.45Q521.30 36.85 520.25 37.60Q519.20 38.35 519.20 39.80Q519.20 41.20 520.27 42.02Q521.35 42.85 523.15 42.85Q524.40 42.85 525.57 42.55Q526.75 42.25 527.70 41.58Q528.65 40.90 529.17 39.83Q529.70 38.75 529.70 37.25L529.70 30.45M534.15 10.65Q534.05 13 533.32 14.57Q532.60 16.15 531.38 16.92Q530.15 17.70 528.40 17.70Q527 17.70 526.02 17.20Q525.05 16.70 524.32 16.07Q523.60 15.45 522.92 14.95Q522.25 14.45 521.50 14.45Q520.45 14.45 519.92 15.32Q519.40 16.20 519.20 17.75L515.55 17.75Q515.75 14.20 517.25 12.42Q518.75 10.65 521.45 10.65Q522.80 10.65 523.77 11.15Q524.75 11.65 525.47 12.27Q526.20 12.90 526.82 13.40Q527.45 13.90 528.20 13.90Q529.25 13.90 529.77 13.02Q530.30 12.15 530.55 10.65L534.15 10.65ZM554.75 47Q551.00 47 548.15 45.45Q545.30 43.90 543.72 40.98Q542.15 38.05 542.15 34Q542.15 29.95 543.72 27.02Q545.30 24.10 548.10 22.55Q550.90 21 554.45 21Q558.10 21 560.65 22.50Q563.20 24 564.55 26.60Q565.90 29.20 565.90 32.50Q565.90 33.40 565.85 34.20Q565.80 35 565.70 35.60L545.60 35.60L545.60 31.50L563.35 31.50L560.70 32.30Q560.70 28.90 559.00 27.07Q557.30 25.25 554.35 25.25Q552.20 25.25 550.60 26.25Q549.00 27.25 548.15 29.22Q547.30 31.20 547.30 34.05Q547.30 36.85 548.20 38.80Q549.10 40.75 550.75 41.75Q552.40 42.75 554.65 42.75Q557.15 42.75 558.70 41.80Q560.25 40.85 561.15 39.15L565.40 41.15Q564.50 42.95 562.97 44.27Q561.45 45.60 559.35 46.30Q557.25 47 554.75 47ZM582.15 47Q578.40 47 575.30 45.55Q572.20 44.10 570.40 41.45L574.10 38.25Q575.20 40.30 577.27 41.52Q579.35 42.75 582.25 42.75Q584.55 42.75 585.90 41.95Q587.25 41.15 587.25 39.70Q587.25 38.75 586.62 38.02Q586.00 37.30 584.25 36.90L579.00 35.80Q575.00 35 573.30 33.23Q571.60 31.45 571.60 28.70Q571.60 26.65 572.80 24.90Q574.00 23.15 576.32 22.07Q578.65 21 581.90 21Q585.65 21 588.30 22.32Q590.95 23.65 592.35 26.10L588.65 29.20Q587.70 27.20 585.85 26.22Q584.00 25.25 582.00 25.25Q580.40 25.25 579.25 25.65Q578.10 26.05 577.50 26.75Q576.90 27.45 576.90 28.40Q576.90 29.40 577.65 30.15Q578.40 30.90 580.35 31.30L586.05 32.50Q589.65 33.20 591.12 34.88Q592.60 36.55 592.60 38.95Q592.60 41.35 591.35 43.17Q590.10 45 587.75 46Q585.40 47 582.15 47Z"/></g></g></svg>