<svg xmlns="http://www.w3.org/2000/svg" viewBox="0 10.25 514.8499755859375 46.75" data-asc="0.93"><g fill="#000000"><g fill="#000000" transform="translate(0, 0)"><path d="M23.85 18.10L5.35 18.10L5.35 27.70L19.85 27.70L19.85 32.30L5.35 32.30L5.35 46.50L0 46.50L0 13.50L23.85 13.50L23.85 18.10ZM38.70 47Q36.25 47 34.17 46.10Q32.10 45.20 30.85 43.20Q29.60 41.20 29.60 38L29.60 21.50L34.95 21.50L34.95 36.65Q34.95 40.05 36.40 41.33Q37.85 42.60 40.45 42.60Q41.70 42.60 42.88 42.17Q44.05 41.75 45 40.83Q45.95 39.90 46.48 38.45Q47 37 47 35.05L47 21.50L52.35 21.50L52.35 46.50L47.65 46.50L47.40 42.45Q46.10 44.80 43.90 45.90Q41.70 47 38.70 47ZM65.90 10.25L65.90 39.50Q65.90 41.35 66.55 42.05Q67.20 42.75 68.70 42.75Q69.60 42.75 70.22 42.63Q70.85 42.50 71.80 42.15L71.20 46.15Q70.35 46.55 69.25 46.77Q68.15 47 67.05 47Q63.70 47 62.13 45.27Q60.55 43.55 60.55 39.95L60.55 10.25L65.90 10.25ZM81.50 10.25L81.50 39.50Q81.50 41.35 82.15 42.05Q82.80 42.75 84.30 42.75Q85.20 42.75 85.83 42.63Q86.45 42.50 87.40 42.15L86.80 46.15Q85.95 46.55 84.85 46.77Q83.75 47 82.65 47Q79.30 47 77.73 45.27Q76.15 43.55 76.15 39.95L76.15 10.25L81.50 10.25ZM109.15 30.85L109.15 35.80L92.10 35.80L92.10 30.85L109.15 30.85ZM129.65 13Q134.10 13 137.35 14.67Q140.60 16.35 142.85 19.60L139.25 23.05Q137.35 20.15 134.97 18.88Q132.60 17.60 129.35 17.60Q126.95 17.60 125.40 18.25Q123.85 18.90 123.13 19.97Q122.40 21.05 122.40 22.40Q122.40 23.95 123.47 25.10Q124.55 26.25 127.50 26.90L134.20 28.40Q139 29.45 141 31.60Q143 33.75 143 37.05Q143 40.10 141.35 42.35Q139.70 44.60 136.78 45.80Q133.85 47 129.90 47Q126.40 47 123.60 46.10Q120.80 45.20 118.70 43.65Q116.60 42.10 115.25 40.10L118.95 36.40Q120 38.15 121.60 39.52Q123.20 40.90 125.33 41.65Q127.45 42.40 130.05 42.40Q132.35 42.40 134.03 41.85Q135.70 41.30 136.57 40.23Q137.45 39.15 137.45 37.65Q137.45 36.20 136.47 35.10Q135.50 34 132.85 33.40L125.60 31.75Q122.60 31.10 120.65 29.90Q118.70 28.70 117.75 26.97Q116.80 25.25 116.80 23.10Q116.80 20.30 118.33 18.02Q119.85 15.75 122.75 14.38Q125.65 13 129.65 13ZM157.05 14.15L157.05 39Q157.05 40.85 158.03 41.70Q159 42.55 160.65 42.55Q162 42.55 163 42.13Q164 41.70 164.85 40.95L166.05 44.85Q164.90 45.85 163.22 46.42Q161.55 47 159.50 47Q157.35 47 155.55 46.30Q153.75 45.60 152.75 44.02Q151.75 42.45 151.70 39.90L151.70 15.65L157.05 14.15M165.65 21.50L165.65 25.70L146.90 25.70L146.90 21.50L165.65 21.50ZM185.40 30.45Q185.40 27.95 184.03 26.57Q182.65 25.20 180.25 25.20Q178 25.20 176.40 26.25Q174.80 27.30 174.05 29.65L169.55 27.75Q170.50 24.70 173.28 22.85Q176.05 21 180.45 21Q183.45 21 185.75 21.97Q188.05 22.95 189.38 24.90Q190.70 26.85 190.70 29.90L190.70 41.05Q190.70 42.90 192.55 42.90Q193.45 42.90 194.30 42.65L194 46.35Q192.85 46.90 191.10 46.90Q189.50 46.90 188.23 46.33Q186.95 45.75 186.23 44.58Q185.50 43.40 185.50 41.65L185.50 41.30L186.60 41.25Q186.15 43.20 184.75 44.48Q183.35 45.75 181.50 46.38Q179.65 47 177.75 47Q175.40 47 173.53 46.25Q171.65 45.50 170.58 43.98Q169.50 42.45 169.50 40.20Q169.50 37.40 171.33 35.60Q173.15 33.80 176.50 33.15L186.20 31.25L186.15 35L179.10 36.45Q177 36.85 175.95 37.60Q174.90 38.35 174.90 39.80Q174.90 41.20 175.98 42.02Q177.05 42.85 178.85 42.85Q180.10 42.85 181.28 42.55Q182.45 42.25 183.40 41.58Q184.35 40.90 184.88 39.83Q185.40 38.75 185.40 37.25L185.40 30.45ZM210.25 21Q213.25 21 215.38 21.88Q217.50 22.75 218.95 24.35Q220.40 25.95 221.15 28L216.10 30Q215.45 27.70 214.03 26.47Q212.60 25.25 210.30 25.25Q208.05 25.25 206.45 26.27Q204.85 27.30 204.03 29.25Q203.20 31.20 203.20 34.05Q203.20 36.85 204.05 38.80Q204.90 40.75 206.50 41.75Q208.10 42.75 210.30 42.75Q212 42.75 213.25 42.17Q214.50 41.60 215.33 40.52Q216.15 39.45 216.45 37.90L221.30 39.55Q220.60 41.80 219.13 43.48Q217.65 45.15 215.45 46.08Q213.25 47 210.40 47Q206.70 47 203.85 45.45Q201 43.90 199.43 40.98Q197.85 38.05 197.85 34Q197.85 29.95 199.43 27.02Q201 24.10 203.83 22.55Q206.65 21 210.25 21ZM251.15 21.50L240 32.90L238.85 33.70L231 41.85L230.95 35.75L244.80 21.50L251.15 21.50M232.90 10.25L232.90 46.50L227.55 46.50L227.55 10.25L232.90 10.25M240.65 29.90L251.75 46.50L245.55 46.50L236.65 32.95L240.65 29.90ZM285.35 13.50Q293.10 13.50 297.43 17.77Q301.75 22.05 301.75 30Q301.75 37.95 297.43 42.23Q293.10 46.50 285.35 46.50L273.70 46.50L273.70 13.50L285.35 13.50M285.35 41.95Q290.60 41.95 293.38 38.83Q296.15 35.70 296.15 30Q296.15 24.30 293.38 21.17Q290.60 18.05 285.35 18.05L279.05 18.05L279.05 41.95L285.35 41.95ZM319.95 47Q316.20 47 313.35 45.45Q310.50 43.90 308.93 40.98Q307.35 38.05 307.35 34Q307.35 29.95 308.93 27.02Q310.50 24.10 313.30 22.55Q316.10 21 319.65 21Q323.30 21 325.85 22.50Q328.40 24 329.75 26.60Q331.10 29.20 331.10 32.50Q331.10 33.40 331.05 34.20Q331 35 330.90 35.60L310.80 35.60L310.80 31.50L328.55 31.50L325.90 32.30Q325.90 28.90 324.20 27.07Q322.50 25.25 319.55 25.25Q317.40 25.25 315.80 26.25Q314.20 27.25 313.35 29.22Q312.50 31.20 312.50 34.05Q312.50 36.85 313.40 38.80Q314.30 40.75 315.95 41.75Q317.60 42.75 319.85 42.75Q322.35 42.75 323.90 41.80Q325.45 40.85 326.35 39.15L330.60 41.15Q329.70 42.95 328.18 44.27Q326.65 45.60 324.55 46.30Q322.45 47 319.95 47ZM354.30 21.50L359.90 21.50L349.95 46.50L344.10 46.50L334.10 21.50L339.95 21.50L347.05 41.85L354.30 21.50ZM375.45 47Q371.70 47 368.85 45.45Q366 43.90 364.43 40.98Q362.85 38.05 362.85 34Q362.85 29.95 364.43 27.02Q366 24.10 368.80 22.55Q371.60 21 375.15 21Q378.80 21 381.35 22.50Q383.90 24 385.25 26.60Q386.60 29.20 386.60 32.50Q386.60 33.40 386.55 34.20Q386.50 35 386.40 35.60L366.30 35.60L366.30 31.50L384.05 31.50L381.40 32.30Q381.40 28.90 379.70 27.07Q378 25.25 375.05 25.25Q372.90 25.25 371.30 26.25Q369.70 27.25 368.85 29.22Q368 31.20 368 34.05Q368 36.85 368.90 38.80Q369.80 40.75 371.45 41.75Q373.10 42.75 375.35 42.75Q377.85 42.75 379.40 41.80Q380.95 40.85 381.85 39.15L386.10 41.15Q385.20 42.95 383.68 44.27Q382.15 45.60 380.05 46.30Q377.95 47 375.45 47ZM398.55 10.25L398.55 39.50Q398.55 41.35 399.20 42.05Q399.85 42.75 401.35 42.75Q402.25 42.75 402.88 42.63Q403.50 42.50 404.45 42.15L403.85 46.15Q403 46.55 401.90 46.77Q400.80 47 399.70 47Q396.35 47 394.77 45.27Q393.20 43.55 393.20 39.95L393.20 10.25L398.55 10.25ZM419.80 21Q423.45 21 426.25 22.55Q429.05 24.10 430.63 27.02Q432.20 29.95 432.20 34Q432.20 38.05 430.63 40.98Q429.05 43.90 426.25 45.45Q423.45 47 419.80 47Q416.15 47 413.35 45.45Q410.55 43.90 408.95 40.98Q407.35 38.05 407.35 34Q407.35 29.95 408.95 27.02Q410.55 24.10 413.35 22.55Q416.15 21 419.80 21M419.80 25.20Q417.55 25.20 415.98 26.22Q414.40 27.25 413.55 29.20Q412.70 31.15 412.70 34Q412.70 36.80 413.55 38.77Q414.40 40.75 415.98 41.77Q417.55 42.80 419.80 42.80Q422.05 42.80 423.60 41.77Q425.15 40.75 426 38.77Q426.85 36.80 426.85 34Q426.85 31.15 426 29.20Q425.15 27.25 423.60 26.22Q422.05 25.20 419.80 25.20ZM438.95 57L438.95 21.50L443.70 21.50L444.10 28.50L443.40 27.65Q444 25.70 445.25 24.20Q446.50 22.70 448.38 21.85Q450.25 21 452.50 21Q455.55 21 458.05 22.55Q460.55 24.10 462 26.97Q463.45 29.85 463.45 33.95Q463.45 38.05 461.98 40.98Q460.50 43.90 457.98 45.45Q455.45 47 452.35 47Q449.15 47 446.90 45.33Q444.65 43.65 443.70 41.05L444.30 40.20L444.30 57L438.95 57M451.20 42.65Q454.45 42.65 456.28 40.35Q458.10 38.05 458.10 34Q458.10 29.95 456.30 27.63Q454.50 25.30 451.30 25.30Q449.20 25.30 447.63 26.38Q446.05 27.45 445.18 29.38Q444.30 31.30 444.30 34Q444.30 36.65 445.15 38.60Q446 40.55 447.55 41.60Q449.10 42.65 451.20 42.65ZM481.30 47Q477.55 47 474.70 45.45Q471.85 43.90 470.28 40.98Q468.70 38.05 468.70 34Q468.70 29.95 470.28 27.02Q471.85 24.10 474.65 22.55Q477.45 21 481.00 21Q484.65 21 487.20 22.50Q489.75 24 491.10 26.60Q492.45 29.20 492.45 32.50Q492.45 33.40 492.40 34.20Q492.35 35 492.25 35.60L472.15 35.60L472.15 31.50L489.90 31.50L487.25 32.30Q487.25 28.90 485.55 27.07Q483.85 25.25 480.90 25.25Q478.75 25.25 477.15 26.25Q475.55 27.25 474.70 29.22Q473.85 31.20 473.85 34.05Q473.85 36.85 474.75 38.80Q475.65 40.75 477.30 41.75Q478.95 42.75 481.20 42.75Q483.70 42.75 485.25 41.80Q486.80 40.85 487.70 39.15L491.95 41.15Q491.05 42.95 489.53 44.27Q488.00 45.60 485.90 46.30Q483.80 47 481.30 47ZM499.20 46.50L499.20 21.50L503.75 21.50L504.25 26Q505.25 23.55 507.23 22.27Q509.20 21 512.10 21Q512.85 21 513.60 21.13Q514.35 21.25 514.85 21.50L514.10 26.20Q513.55 26 512.88 25.88Q512.20 25.75 511.05 25.75Q509.50 25.75 508 26.57Q506.50 27.40 505.53 29.05Q504.55 30.70 504.55 33.25L504.55 46.50L499.20 46.50Z"/></g></g></svg>